<svg width="80" height="75" viewBox="0 0 80 75" fill="none" xmlns="http://www.w3.org/2000/svg">
<path d="M55.6273 29.1294C57.4897 26.2336 58.5701 22.787 58.5701 19.0882C58.5701 8.82221 50.2479 0.5 39.9819 0.5C29.7159 0.5 21.3937 8.82221 21.3937 19.0882C21.3937 22.787 22.4741 26.2336 24.3365 29.1294L27.5664 17.2246C31.0015 4.56343 48.9623 4.56343 52.3974 17.2246L55.6273 29.1294Z" fill="#20CE8A"/>
<path d="M19.4304 37.6402C15.9909 37.4814 12.4674 38.2754 9.26748 40.1307C0.386287 45.2799 -2.63882 56.6543 2.51071 65.536C7.66024 74.4177 19.0344 77.4434 27.9156 72.2942C31.1155 70.4389 33.5552 67.7755 35.1262 64.7117L23.207 67.8886C10.5307 71.2673 1.52133 55.7283 10.7515 46.4058L19.4304 37.6402Z" fill="#20CE8A"/>
<path d="M60.5569 37.6433C63.9962 37.4821 67.5203 38.2737 70.7215 40.1268C79.6062 45.2699 82.6391 56.6422 77.4957 65.5274C72.3523 74.4127 60.9802 77.4462 52.0955 72.3031C48.8943 70.45 46.4527 67.7883 44.8796 64.7255L56.801 67.8942C69.4797 71.2642 78.4783 55.7191 69.2417 46.4029L60.5569 37.6433Z" fill="#20CE8A"/>
</svg>
