<svg width="20" height="22" viewBox="0 0 20 22" fill="none" xmlns="http://www.w3.org/2000/svg">
<path fill-rule="evenodd" clip-rule="evenodd" d="M11.3982 0.0826934C11.8054 0.259462 12.0474 0.683531 11.9923 1.12403L11.1328 8H19C19.388 8 19.741 8.22445 19.9056 8.57584C20.0702 8.92723 20.0166 9.3421 19.7682 9.64018L9.76823 21.6402C9.48404 21.9812 9.00903 22.0941 8.60182 21.9173C8.1946 21.7405 7.95267 21.3165 8.00773 20.876L8.86723 14H1.00001C0.611995 14 0.259003 13.7755 0.0944228 13.4242C-0.070157 13.0728 -0.0166119 12.6579 0.231791 12.3598L10.2318 0.35981C10.516 0.0187764 10.991 -0.0940753 11.3982 0.0826934ZM3.13505 12H9.43362C10.3359 12 11.0339 12.7908 10.922 13.686L10.4154 17.7395L16.865 10H10.5664C9.66416 10 8.96608 9.20922 9.07799 8.31394L9.58467 4.26045L3.13505 12Z" fill="#1AA56E"/>
</svg>
