<svg width="20" height="20" viewBox="0 0 20 20" fill="none" xmlns="http://www.w3.org/2000/svg">
<path d="M19.25 1V0.75H19H11.6364H11.3864V1V2.09091V2.34091H11.6364H16.5343L7.5285 11.3467L7.35172 11.5235L7.5285 11.7002L8.29977 12.4715L8.47655 12.6483L8.65332 12.4715L17.6591 3.46574V8.36364V8.61364H17.9091H19H19.25V8.36364V1ZM11.0909 4.52273H11.3409V4.27273V3.18182V2.93182H11.0909H2.36364C1.47366 2.93182 0.75 3.65548 0.75 4.54546V17.6364C0.75 18.5263 1.47366 19.25 2.36364 19.25H15.4545C16.3445 19.25 17.0682 18.5263 17.0682 17.6364V8.90909V8.65909H16.8182H15.7273H15.4773V8.90909V17.6364C15.4773 17.6388 15.4762 17.6448 15.4696 17.6514C15.463 17.658 15.457 17.6591 15.4545 17.6591H2.36364C2.36121 17.6591 2.35523 17.658 2.34862 17.6514C2.34201 17.6448 2.34091 17.6388 2.34091 17.6364V4.54546C2.34091 4.54302 2.34201 4.53705 2.34862 4.53044C2.35523 4.52383 2.3612 4.52273 2.36364 4.52273H11.0909Z" fill="#939BA1" stroke="#939BA1" stroke-width="0.5"/>
</svg>
